<svg xmlns="http://www.w3.org/2000/svg" width="900" height="300" viewBox="0 0 900 300" fill="none" role="img" aria-label="Abdulrahman Ammar - Software Engineer, AI and Computer Vision">
<defs>
<linearGradient id="hd-name" x1="0" y1="0" x2="1" y2="0"><stop offset="0" stop-color="#22d3ee"/><stop offset="0.25" stop-color="#a78bfa"/><stop offset="0.5" stop-color="#f472b6"/><stop offset="0.75" stop-color="#fb7185"/><stop offset="1" stop-color="#fbbf24"/><animateTransform attributeName="gradientTransform" type="translate" values="-1 0;1 0;-1 0" dur="4s" repeatCount="indefinite"/></linearGradient>
<linearGradient id="hd-shine" x1="0" y1="0" x2="1" y2="0"><stop offset="0" stop-color="#ffffff" stop-opacity="0"/><stop offset="0.5" stop-color="#ffffff" stop-opacity="0.8"/><stop offset="1" stop-color="#ffffff" stop-opacity="0"/></linearGradient>
<linearGradient id="hd-arm" x1="0" y1="0" x2="1" y2="1"><stop offset="0" stop-color="#22d3ee"/><stop offset="1" stop-color="#0e7490"/></linearGradient>
<linearGradient id="hd-board" x1="0" y1="0" x2="1" y2="0"><stop offset="0" stop-color="#22d3ee"/><stop offset="0.5" stop-color="#a78bfa"/><stop offset="1" stop-color="#f472b6"/></linearGradient>
<radialGradient id="hd-blob0" cx="0.5" cy="0.5" r="0.5"><stop offset="0" stop-color="#22d3ee" stop-opacity="0.5"/><stop offset="1" stop-color="#22d3ee" stop-opacity="0"/></radialGradient>
<radialGradient id="hd-blob1" cx="0.5" cy="0.5" r="0.5"><stop offset="0" stop-color="#a78bfa" stop-opacity="0.5"/><stop offset="1" stop-color="#a78bfa" stop-opacity="0"/></radialGradient>
<radialGradient id="hd-blob2" cx="0.5" cy="0.5" r="0.5"><stop offset="0" stop-color="#f472b6" stop-opacity="0.5"/><stop offset="1" stop-color="#f472b6" stop-opacity="0"/></radialGradient>
<radialGradient id="hd-blob3" cx="0.5" cy="0.5" r="0.5"><stop offset="0" stop-color="#fbbf24" stop-opacity="0.5"/><stop offset="1" stop-color="#fbbf24" stop-opacity="0"/></radialGradient>
<filter id="hd-blur" x="-50%" y="-50%" width="200%" height="200%"><feGaussianBlur stdDeviation="26"/></filter>
<filter id="hd-soft" x="-60%" y="-60%" width="220%" height="220%"><feGaussianBlur stdDeviation="2.4"/></filter>
<clipPath id="hd-nameclip"><text x="348" y="114" class="sans" font-size="38" font-weight="800">Abdulrahman Ammar</text></clipPath>
<style>
@keyframes hd-blob{0%,100%{transform:translate(0,0)}50%{transform:translate(26px,-18px)}}
@keyframes hd-blob2{0%,100%{transform:translate(0,0)}50%{transform:translate(-30px,16px)}}
@keyframes hd-up{0%{transform:translate(0,0);opacity:0}14%{opacity:1}100%{transform:translate(78px,-160px);opacity:0}}
@keyframes hd-streak{0%{transform:translateX(-260px);opacity:0}8%{opacity:1}55%{opacity:1}100%{transform:translateX(1100px);opacity:0}}
@keyframes hd-blink{0%,55%{opacity:1}75%,100%{opacity:0}}
@keyframes hd-bar{0%,100%{transform:scaleY(.3)}50%{transform:scaleY(1)}}
@keyframes hd-shine{0%{transform:translateX(-260px)}100%{transform:translateX(500px)}}
@keyframes hd-glow{0%,100%{opacity:.5}50%{opacity:1}}
@keyframes hd-enter{0.0%{transform:translate(0px,210px) rotate(0deg);opacity:0}3.0%{transform:translate(0px,210px) rotate(0deg);opacity:0}11.0%{transform:translate(0px,0px) rotate(0deg);opacity:1}25.0%{transform:translate(0px,0px) rotate(0deg);opacity:1}31.0%{transform:translate(0px,210px) rotate(0deg);opacity:0}33.33%{transform:translate(-360px,-10px) rotate(90deg);opacity:0}36.33%{transform:translate(-360px,-10px) rotate(90deg);opacity:0}44.33%{transform:translate(0px,0px) rotate(0deg);opacity:1}58.33%{transform:translate(0px,0px) rotate(0deg);opacity:1}64.33%{transform:translate(-360px,-10px) rotate(90deg);opacity:0}66.67%{transform:translate(360px,-10px) rotate(-90deg);opacity:0}69.67%{transform:translate(360px,-10px) rotate(-90deg);opacity:0}77.67%{transform:translate(0px,0px) rotate(0deg);opacity:1}91.67%{transform:translate(0px,0px) rotate(0deg);opacity:1}97.67%{transform:translate(360px,-10px) rotate(-90deg);opacity:0}100%{transform:translate(0px,210px) rotate(0deg);opacity:0}}
@keyframes hd-g0{0%{opacity:0}6.0%{opacity:0}12.0%{opacity:1}25.0%{opacity:1}30.0%{opacity:0}100%{opacity:0}}
@keyframes hd-g1{0%{opacity:0}33.33%{opacity:0}39.33%{opacity:0}45.33%{opacity:1}58.33%{opacity:1}63.33%{opacity:0}100%{opacity:0}}
@keyframes hd-g2{0%{opacity:0}66.67%{opacity:0}72.67%{opacity:0}78.67%{opacity:1}91.67%{opacity:1}96.67%{opacity:0}100%{opacity:0}}
.blob1{transform-box:fill-box;transform-origin:center;animation:hd-blob 10s ease-in-out infinite}
.blob2{transform-box:fill-box;transform-origin:center;animation:hd-blob2 12s ease-in-out infinite}
.cur{animation:hd-blink 1.1s step-end infinite}
.bar{transform-box:fill-box;transform-origin:bottom;animation:hd-bar 1s ease-in-out infinite}
.shine{animation:hd-shine 3s ease-in-out infinite}
.bglow{animation:hd-glow 2.2s ease-in-out infinite}
.stage{transform-origin:170px 175px;animation:hd-enter 12s ease-out infinite}
.g0{animation:hd-g0 12s linear infinite}
.g1{animation:hd-g1 12s linear infinite}
.g2{animation:hd-g2 12s linear infinite}
.mono{font-family:"SFMono-Regular",Consolas,"Liberation Mono",monospace}
.sans{font-family:"Segoe UI","Helvetica Neue",Arial,sans-serif}
</style>
</defs>
<rect width="900" height="300" rx="18" fill="#080b14"/>
<g filter="url(#hd-blur)">
<ellipse class="blob1" cx="150" cy="120" rx="150" ry="120" fill="url(#hd-blob0)"/>
<ellipse class="blob2" cx="470" cy="220" rx="170" ry="120" fill="url(#hd-blob1)"/>
<ellipse class="blob1" cx="700" cy="90" rx="160" ry="120" fill="url(#hd-blob2)"/>
<ellipse class="blob2" cx="830" cy="240" rx="150" ry="110" fill="url(#hd-blob3)"/>
</g>
<rect x="1" y="1" width="898" height="298" rx="17" fill="none" stroke="#1b2942" stroke-width="1.5"/>
<g stroke="#13203a" stroke-width="1" opacity="0.4">
<line x1="60" y1="0" x2="60" y2="300"/>
<line x1="120" y1="0" x2="120" y2="300"/>
<line x1="180" y1="0" x2="180" y2="300"/>
<line x1="240" y1="0" x2="240" y2="300"/>
<line x1="300" y1="0" x2="300" y2="300"/>
<line x1="360" y1="0" x2="360" y2="300"/>
<line x1="420" y1="0" x2="420" y2="300"/>
<line x1="480" y1="0" x2="480" y2="300"/>
<line x1="540" y1="0" x2="540" y2="300"/>
<line x1="600" y1="0" x2="600" y2="300"/>
<line x1="660" y1="0" x2="660" y2="300"/>
<line x1="720" y1="0" x2="720" y2="300"/>
<line x1="780" y1="0" x2="780" y2="300"/>
<line x1="840" y1="0" x2="840" y2="300"/>
<line x1="0" y1="60" x2="900" y2="60"/>
<line x1="0" y1="120" x2="900" y2="120"/>
<line x1="0" y1="180" x2="900" y2="180"/>
<line x1="0" y1="240" x2="900" y2="240"/>
</g>
<g style="animation:hd-streak 1.38s linear 0.11s infinite"><line x1="0" y1="185" x2="128" y2="157" stroke="#a78bfa" stroke-width="2.5" stroke-linecap="round" filter="url(#hd-soft)"/><circle cx="128" cy="157" r="2.6" fill="#fff"/></g>
<g style="animation:hd-streak 1.51s linear 2.00s infinite"><line x1="0" y1="68" x2="87" y2="49" stroke="#fbbf24" stroke-width="2.5" stroke-linecap="round" filter="url(#hd-soft)"/><circle cx="87" cy="49" r="2.6" fill="#fff"/></g>
<g style="animation:hd-streak 1.40s linear 0.15s infinite"><line x1="0" y1="39" x2="71" y2="23" stroke="#38bdf8" stroke-width="2.5" stroke-linecap="round" filter="url(#hd-soft)"/><circle cx="71" cy="23" r="2.6" fill="#fff"/></g>
<g style="animation:hd-streak 1.68s linear 0.27s infinite"><line x1="0" y1="237" x2="88" y2="218" stroke="#22d3ee" stroke-width="2.5" stroke-linecap="round" filter="url(#hd-soft)"/><circle cx="88" cy="218" r="2.6" fill="#fff"/></g>
<g style="animation:hd-streak 1.13s linear 0.49s infinite"><line x1="0" y1="51" x2="77" y2="34" stroke="#a3e635" stroke-width="2.5" stroke-linecap="round" filter="url(#hd-soft)"/><circle cx="77" cy="34" r="2.6" fill="#fff"/></g>
<g style="animation:hd-streak 1.20s linear 0.26s infinite"><line x1="0" y1="168" x2="99" y2="146" stroke="#a3e635" stroke-width="2.5" stroke-linecap="round" filter="url(#hd-soft)"/><circle cx="99" cy="146" r="2.6" fill="#fff"/></g>
<g style="animation:hd-streak 1.51s linear 1.41s infinite"><line x1="0" y1="112" x2="107" y2="88" stroke="#38bdf8" stroke-width="2.5" stroke-linecap="round" filter="url(#hd-soft)"/><circle cx="107" cy="88" r="2.6" fill="#fff"/></g>
<g style="animation:hd-up 3.19s ease-in 1.74s infinite"><line x1="139" y1="186" x2="133" y2="199" stroke="#22d3ee" stroke-width="2" stroke-linecap="round" opacity="0.85"/><circle cx="139" cy="186" r="1.8" fill="#fff"/></g>
<g style="animation:hd-up 2.94s ease-in 3.23s infinite"><line x1="584" y1="279" x2="578" y2="292" stroke="#fbbf24" stroke-width="2" stroke-linecap="round" opacity="0.85"/><circle cx="584" cy="279" r="1.8" fill="#fff"/></g>
<g style="animation:hd-up 3.47s ease-in 2.45s infinite"><line x1="410" y1="246" x2="404" y2="259" stroke="#f472b6" stroke-width="2" stroke-linecap="round" opacity="0.85"/><circle cx="410" cy="246" r="1.8" fill="#fff"/></g>
<g style="animation:hd-up 3.04s ease-in 3.06s infinite"><line x1="289" y1="190" x2="283" y2="203" stroke="#fb7185" stroke-width="2" stroke-linecap="round" opacity="0.85"/><circle cx="289" cy="190" r="1.8" fill="#fff"/></g>
<g style="animation:hd-up 3.17s ease-in 0.26s infinite"><line x1="786" y1="284" x2="780" y2="297" stroke="#fb7185" stroke-width="2" stroke-linecap="round" opacity="0.85"/><circle cx="786" cy="284" r="1.8" fill="#fff"/></g>
<g style="animation:hd-up 3.41s ease-in 0.53s infinite"><line x1="564" y1="277" x2="558" y2="290" stroke="#a78bfa" stroke-width="2" stroke-linecap="round" opacity="0.85"/><circle cx="564" cy="277" r="1.8" fill="#fff"/></g>
<g style="animation:hd-up 3.74s ease-in 0.27s infinite"><line x1="540" y1="277" x2="534" y2="290" stroke="#22d3ee" stroke-width="2" stroke-linecap="round" opacity="0.85"/><circle cx="540" cy="277" r="1.8" fill="#fff"/></g>
<g style="animation:hd-up 3.31s ease-in 2.08s infinite"><line x1="611" y1="250" x2="605" y2="263" stroke="#fbbf24" stroke-width="2" stroke-linecap="round" opacity="0.85"/><circle cx="611" cy="250" r="1.8" fill="#fff"/></g>
<g style="animation:hd-up 3.54s ease-in 3.31s infinite"><line x1="633" y1="286" x2="627" y2="299" stroke="#38bdf8" stroke-width="2" stroke-linecap="round" opacity="0.85"/><circle cx="633" cy="286" r="1.8" fill="#fff"/></g>
<g style="animation:hd-up 3.37s ease-in 1.08s infinite"><line x1="525" y1="186" x2="519" y2="199" stroke="#22d3ee" stroke-width="2" stroke-linecap="round" opacity="0.85"/><circle cx="525" cy="186" r="1.8" fill="#fff"/></g>
<g style="animation:hd-up 3.35s ease-in 3.10s infinite"><line x1="631" y1="284" x2="625" y2="297" stroke="#fb7185" stroke-width="2" stroke-linecap="round" opacity="0.85"/><circle cx="631" cy="284" r="1.8" fill="#fff"/></g>
<g style="animation:hd-up 2.77s ease-in 2.14s infinite"><line x1="395" y1="175" x2="389" y2="188" stroke="#34d399" stroke-width="2" stroke-linecap="round" opacity="0.85"/><circle cx="395" cy="175" r="1.8" fill="#fff"/></g>
<g style="animation:hd-up 3.43s ease-in 0.45s infinite"><line x1="545" y1="185" x2="539" y2="198" stroke="#f472b6" stroke-width="2" stroke-linecap="round" opacity="0.85"/><circle cx="545" cy="185" r="1.8" fill="#fff"/></g>
<g style="animation:hd-up 3.67s ease-in 1.74s infinite"><line x1="293" y1="271" x2="287" y2="284" stroke="#a3e635" stroke-width="2" stroke-linecap="round" opacity="0.85"/><circle cx="293" cy="271" r="1.8" fill="#fff"/></g>
<g style="animation:hd-up 3.08s ease-in 3.09s infinite"><line x1="210" y1="284" x2="204" y2="297" stroke="#a3e635" stroke-width="2" stroke-linecap="round" opacity="0.85"/><circle cx="210" cy="284" r="1.8" fill="#fff"/></g>
<g style="animation:hd-up 3.78s ease-in 2.39s infinite"><line x1="480" y1="241" x2="474" y2="254" stroke="#a3e635" stroke-width="2" stroke-linecap="round" opacity="0.85"/><circle cx="480" cy="241" r="1.8" fill="#fff"/></g>
<g style="animation:hd-up 2.33s ease-in 0.53s infinite"><line x1="429" y1="229" x2="423" y2="242" stroke="#a78bfa" stroke-width="2" stroke-linecap="round" opacity="0.85"/><circle cx="429" cy="229" r="1.8" fill="#fff"/></g>
<g style="animation:hd-up 2.98s ease-in 2.06s infinite"><line x1="714" y1="229" x2="708" y2="242" stroke="#22d3ee" stroke-width="2" stroke-linecap="round" opacity="0.85"/><circle cx="714" cy="229" r="1.8" fill="#fff"/></g>
<g style="animation:hd-up 2.43s ease-in 1.87s infinite"><line x1="309" y1="242" x2="303" y2="255" stroke="#22d3ee" stroke-width="2" stroke-linecap="round" opacity="0.85"/><circle cx="309" cy="242" r="1.8" fill="#fff"/></g>
<g style="animation:hd-up 3.30s ease-in 1.80s infinite"><line x1="664" y1="251" x2="658" y2="264" stroke="#a78bfa" stroke-width="2" stroke-linecap="round" opacity="0.85"/><circle cx="664" cy="251" r="1.8" fill="#fff"/></g>
<g style="animation:hd-up 3.64s ease-in 2.73s infinite"><line x1="672" y1="183" x2="666" y2="196" stroke="#34d399" stroke-width="2" stroke-linecap="round" opacity="0.85"/><circle cx="672" cy="183" r="1.8" fill="#fff"/></g>
<g style="animation:hd-up 2.84s ease-in 0.36s infinite"><line x1="736" y1="270" x2="730" y2="283" stroke="#a3e635" stroke-width="2" stroke-linecap="round" opacity="0.85"/><circle cx="736" cy="270" r="1.8" fill="#fff"/></g>
<g class="stage">
<ellipse cx="170" cy="250" rx="64" ry="11" fill="#000" opacity="0.4"/>
<rect x="150" y="196" width="16" height="42" rx="7" fill="#1f2a3d"/><rect x="174" y="196" width="16" height="42" rx="7" fill="#27384f"/>
<ellipse cx="158" cy="242" rx="13" ry="6" fill="#0e1f33"/><ellipse cx="182" cy="242" rx="13" ry="6" fill="#0e1f33"/>
<path d="M152 156 Q108 138 80 108" stroke="url(#hd-arm)" stroke-width="11" fill="none" stroke-linecap="round"/>
<path d="M188 156 Q232 138 260 108" stroke="url(#hd-arm)" stroke-width="11" fill="none" stroke-linecap="round"/>
<circle cx="80" cy="106" r="7" fill="#f3cdac"/><circle cx="260" cy="106" r="7" fill="#f3cdac"/>
<path d="M146 158 Q170 146 194 158 L190 200 Q170 210 150 200 Z" fill="url(#hd-arm)"/>
<path d="M170 150 V206" stroke="#0a4a5c" stroke-width="2" opacity="0.6"/>
<rect x="163" y="142" width="14" height="10" rx="4" fill="#e7b894"/>
<circle cx="170" cy="132" r="15" fill="#f3cdac"/>
<path d="M154 130 Q154 110 170 110 Q186 110 186 130 Q186 120 176 117 Q170 124 162 122 Q156 124 154 130 Z" fill="#1c1208"/>
<circle cx="164" cy="132" r="2.2" fill="#15324a"/><circle cx="176" cy="132" r="2.2" fill="#15324a"/>
<path d="M164 139 Q170 144 176 139" stroke="#b9744a" stroke-width="2" fill="none" stroke-linecap="round"/>
<rect class="bglow" x="56" y="28" width="228" height="76" rx="14" fill="none" stroke="url(#hd-board)" stroke-width="3"/>
<rect x="58" y="30" width="224" height="72" rx="12" fill="#0c1424" stroke="#2a3b57"/>
<rect x="58" y="30" width="224" height="72" rx="12" fill="none" stroke="url(#hd-board)" stroke-opacity="0.5"/>
<text class="g0 mono" x="170" y="71" text-anchor="middle" font-size="16" font-weight="700" fill="#67e8f9" opacity="0">Welcome!</text>
<text class="g1 mono" x="170" y="71" text-anchor="middle" font-size="16" font-weight="700" fill="#fbbf24" opacity="0">Hi there!</text>
<text class="g2 mono" x="170" y="71" text-anchor="middle" font-size="16" font-weight="700" fill="#f472b6" opacity="0">Let's build!</text>
</g>
<text x="348" y="114" class="sans" font-size="38" font-weight="800" fill="url(#hd-name)">Abdulrahman Ammar</text>
<g clip-path="url(#hd-nameclip)"><rect class="shine" x="0" y="74" width="110" height="56" fill="url(#hd-shine)"/></g>
<g transform="translate(348,150)">
<rect class="bar" x="0" y="-15" width="5" height="15" rx="2" fill="#22d3ee" style="animation-delay:0.00s"/>
<rect class="bar" x="9" y="-15" width="5" height="15" rx="2" fill="#38bdf8" style="animation-delay:0.12s"/>
<rect class="bar" x="18" y="-15" width="5" height="15" rx="2" fill="#a78bfa" style="animation-delay:0.24s"/>
<rect class="bar" x="27" y="-15" width="5" height="15" rx="2" fill="#f472b6" style="animation-delay:0.36s"/>
<rect class="bar" x="36" y="-15" width="5" height="15" rx="2" fill="#fb7185" style="animation-delay:0.48s"/>
<rect class="bar" x="45" y="-15" width="5" height="15" rx="2" fill="#fbbf24" style="animation-delay:0.60s"/>
<rect class="bar" x="54" y="-15" width="5" height="15" rx="2" fill="#a3e635" style="animation-delay:0.72s"/>
</g>
<text x="422" y="148" class="mono" font-size="16" fill="#cfe3f5"><tspan fill="#22d3ee" font-weight="700">&gt;</tspan> Software Engineer</text>
<text x="348" y="178" class="mono" font-size="15" fill="#9fb3c8">AI &amp; Computer Vision Enthusiast<tspan class="cur" fill="#f472b6" dx="3">_</tspan></text>
<g class="mono" font-size="11" font-weight="700">
<g transform="translate(348,200)"><rect width="72" height="24" rx="12" fill="#0e1f33" stroke="#22d3ee" stroke-opacity="0.7"/><text x="36" y="16" text-anchor="middle" fill="#22d3ee">KFUPM</text></g>
<g transform="translate(438,200)"><rect width="64" height="24" rx="12" fill="#0e1f33" stroke="#fb7185" stroke-opacity="0.7"/><text x="32" y="16" text-anchor="middle" fill="#fb7185">YOLO</text></g>
<g transform="translate(514,200)"><rect width="96" height="24" rx="12" fill="#0e1f33" stroke="#a78bfa" stroke-opacity="0.7"/><text x="48" y="16" text-anchor="middle" fill="#a78bfa">React · Node</text></g>
<g transform="translate(622,200)"><rect width="80" height="24" rx="12" fill="#0e1f33" stroke="#fbbf24" stroke-opacity="0.7"/><text x="40" y="16" text-anchor="middle" fill="#fbbf24">Creative</text></g>
</g>
</svg>